<svg xmlns="http://www.w3.org/2000/svg" viewBox="0 0 32 32" width="32" height="32">
  <defs>
    <linearGradient id="reportGradient" x1="0%" y1="0%" x2="100%" y2="100%">
      <stop offset="0%" style="stop-color:#667eea;stop-opacity:1" />
      <stop offset="100%" style="stop-color:#764ba2;stop-opacity:1" />
    </linearGradient>
  </defs>
  
  <!-- Document background -->
  <rect x="6" y="4" width="20" height="24" rx="2" ry="2" fill="url(#reportGradient)" />
  
  <!-- Document fold corner -->
  <polygon points="22,4 26,8 22,8" fill="#5a6fd8" />
  
  <!-- Text lines -->
  <rect x="9" y="10" width="14" height="1.5" fill="white" opacity="0.9" rx="0.5" />
  <rect x="9" y="13" width="11" height="1.5" fill="white" opacity="0.8" rx="0.5" />
  <rect x="9" y="16" width="13" height="1.5" fill="white" opacity="0.9" rx="0.5" />
  <rect x="9" y="19" width="9" height="1.5" fill="white" opacity="0.7" rx="0.5" />
  <rect x="9" y="22" width="12" height="1.5" fill="white" opacity="0.8" rx="0.5" />
  
  <!-- Small chart/graph icon -->
  <circle cx="11" cy="25" r="1" fill="white" opacity="0.6" />
  <circle cx="14" cy="23" r="1" fill="white" opacity="0.6" />
  <circle cx="17" cy="24" r="1" fill="white" opacity="0.6" />
  <circle cx="20" cy="22" r="1" fill="white" opacity="0.6" />
  
  <!-- Connecting lines for chart -->
  <line x1="11" y1="25" x2="14" y2="23" stroke="white" stroke-width="0.5" opacity="0.4" />
  <line x1="14" y1="23" x2="17" y2="24" stroke="white" stroke-width="0.5" opacity="0.4" />
  <line x1="17" y1="24" x2="20" y2="22" stroke="white" stroke-width="0.5" opacity="0.4" />
</svg>
